<?xml version="1.0" encoding="utf-8"?>
<!-- Generator: Adobe Illustrator 17.1.0, SVG Export Plug-In . SVG Version: 6.00 Build 0)  -->
<!DOCTYPE svg PUBLIC "-//W3C//DTD SVG 1.1//EN" "http://www.w3.org/Graphics/SVG/1.1/DTD/svg11.dtd">
<svg version="1.1" id="レイヤー_1" xmlns="http://www.w3.org/2000/svg" xmlns:xlink="http://www.w3.org/1999/xlink" x="0px"
	 y="0px" viewBox="0 0 336 190" enable-background="new 0 0 336 190" xml:space="preserve">
<rect fill="#6CC655" width="336" height="190"/>
<image display="none" overflow="visible" width="336" height="190" xlink:href="../../../../downloads/sns-twitter-side.png" >
</image>
<text transform="matrix(1 0 0 1 74.4633 161.9998)" fill="#FFFFFF" font-family="'KozGoPr6N-Medium-83pv-RKSJ-H'" font-size="25">Follow on feedly</text>
<g>
	<g>
		<path fill="#FFFFFF" d="M168.8,91.5l3.9,3.9c0.4,0.4,0.4,1.1,0,1.6l-2.9,2.9c-0.2,0.2-0.4,0.2-0.5,0.2h-2.6c-0.1,0-0.3,0-0.5-0.2
			l-3-2.9c-0.4-0.4-0.4-1.1,0-1.6l3.9-3.9C167.6,91,168.3,91,168.8,91.5L168.8,91.5z M168.8,75.3l3.9,3.9c0.4,0.4,0.4,1.1,0,1.6
			l-11,11c-0.2,0.2-0.4,0.2-0.5,0.2h-2.6c-0.1,0-0.3,0-0.5-0.2l-3-2.9c-0.4-0.4-0.4-1.1,0-1.6l12-12
			C167.6,74.9,168.4,74.9,168.8,75.3L168.8,75.3z M168.8,59.3l3.9,3.9c0.4,0.4,0.4,1.1,0,1.6l-19.1,19c-0.2,0.2-0.4,0.2-0.5,0.2
			h-2.6c-0.1,0-0.3,0-0.5-0.2l-3-3c-0.4-0.4-0.4-1.1,0-1.6l20-20C167.6,58.8,168.4,58.8,168.8,59.3L168.8,59.3z M173.7,47.9
			c-3.1-3.1-8.2-3.1-11.4,0l-26.5,26.5c-3.1,3.1-3.1,8.2,0,11.4l19.1,19.1c0.8,0.8,2.8,1.8,4.2,1.8h17.6c1.1,0,3.4-0.8,4.4-1.9
			l19.1-19.1c3.1-3.1,3.1-8.2,0-11.4L173.7,47.9z M173.7,47.9"/>
	</g>
</g>
</svg>
