<?xml version="1.0" encoding="utf-8"?>
<!-- Generator: Adobe Illustrator 17.1.0, SVG Export Plug-In . SVG Version: 6.00 Build 0)  -->
<!DOCTYPE svg PUBLIC "-//W3C//DTD SVG 1.1//EN" "http://www.w3.org/Graphics/SVG/1.1/DTD/svg11.dtd">
<svg version="1.1" id="レイヤー_1" xmlns="http://www.w3.org/2000/svg" xmlns:xlink="http://www.w3.org/1999/xlink" x="0px"
	 y="0px" viewBox="0 0 336 190" enable-background="new 0 0 336 190" xml:space="preserve">
<rect fill="#DC4E41" width="336" height="190"/>
<image display="none" overflow="visible" width="336" height="190" xlink:href="../../../../downloads/sns-twitter-side.png" >
</image>
<text transform="matrix(1 0 0 1 78.2504 161.9998)" fill="#FFFFFF" font-family="'KozGoPr6N-Medium-83pv-RKSJ-H'" font-size="25">Google+ で見る</text>
<g>
	<path fill="#FFFFFF" d="M122.4,76.6c-0.6-14.9,12.5-28.8,27.5-28.9c7.6-0.7,15,2.3,20.8,7.1c-2.4,2.6-4.8,5.2-7.3,7.6
		c-5.1-3.1-11.2-5.4-17.1-3.3c-9.6,2.7-15.4,14-11.8,23.4c2.9,9.8,14.8,15.2,24.2,11c4.8-1.7,8-6.2,9.4-11c-5.5-0.1-11.1,0-16.6-0.2
		c0-3.3,0-6.6,0-9.9c9.2,0,18.5,0,27.7,0c0.6,8.1-0.6,16.7-5.9,23.2c-7.2,9.2-20.4,12-31.2,8.3C130.5,100.2,122.2,88.7,122.4,76.6z"
		/>
	<path fill="#FFFFFF" d="M197,64.1c2.7,0,5.5,0,8.2,0c0,2.8,0,5.5,0.1,8.3c2.8,0,5.5,0,8.3,0.1c0,2.8,0,5.5,0,8.2
		c-2.8,0-5.5,0-8.3,0c0,2.8,0,5.5-0.1,8.3c-2.8,0-5.5,0-8.2,0c0-2.8,0-5.5-0.1-8.3c-2.8,0-5.5,0-8.3-0.1c0-2.8,0-5.5,0-8.2
		c2.8,0,5.5,0,8.3-0.1C197,69.6,197,66.9,197,64.1z"/>
</g>
</svg>
