<?xml version="1.0" encoding="utf-8"?>
<!-- Generator: Adobe Illustrator 17.1.0, SVG Export Plug-In . SVG Version: 6.00 Build 0)  -->
<!DOCTYPE svg PUBLIC "-//W3C//DTD SVG 1.1//EN" "http://www.w3.org/Graphics/SVG/1.1/DTD/svg11.dtd">
<svg version="1.1" id="レイヤー_1" xmlns="http://www.w3.org/2000/svg" xmlns:xlink="http://www.w3.org/1999/xlink" x="0px"
	 y="0px" viewBox="0 0 50 50" enable-background="new 0 0 50 50" xml:space="preserve">
<image display="none" overflow="visible" width="336" height="190" xlink:href="../../../../downloads/sns-twitter-side.png"  transform="matrix(1 0 0 1 0 -70)">
</image>
<g>
	<path fill="#FFFFFF" d="M2.8,25c-0.3-7.3,6.1-14,13.4-14.1c3.7-0.3,7.3,1.1,10.1,3.5c-1.2,1.3-2.3,2.5-3.6,3.7
		c-2.5-1.5-5.4-2.6-8.3-1.6c-4.7,1.3-7.5,6.8-5.8,11.4c1.4,4.8,7.2,7.4,11.7,5.4c2.3-0.8,3.9-3,4.6-5.3c-2.7-0.1-5.4,0-8.1-0.1
		c0-1.6,0-3.2,0-4.8c4.5,0,9,0,13.5,0c0.3,3.9-0.3,8.1-2.9,11.3c-3.5,4.5-9.9,5.8-15.2,4.1C6.8,36.5,2.7,30.9,2.8,25z"/>
	<path fill="#FFFFFF" d="M39.1,19c1.3,0,2.7,0,4,0c0,1.3,0,2.7,0,4c1.3,0,2.7,0,4,0c0,1.3,0,2.7,0,4c-1.3,0-2.7,0-4,0
		c0,1.3,0,2.7,0,4c-1.3,0-2.7,0-4,0c0-1.3,0-2.7,0-4c-1.3,0-2.7,0-4,0c0-1.3,0-2.7,0-4c1.3,0,2.7,0,4,0C39.1,21.6,39.1,20.3,39.1,19
		z"/>
</g>
</svg>
