<?xml version="1.0" encoding="utf-8"?>
<!-- Generator: Adobe Illustrator 17.1.0, SVG Export Plug-In . SVG Version: 6.00 Build 0)  -->
<!DOCTYPE svg PUBLIC "-//W3C//DTD SVG 1.1//EN" "http://www.w3.org/Graphics/SVG/1.1/DTD/svg11.dtd">
<svg version="1.1" id="レイヤー_1" xmlns="http://www.w3.org/2000/svg" xmlns:xlink="http://www.w3.org/1999/xlink" x="0px"
	 y="0px" viewBox="0 0 50 50" enable-background="new 0 0 50 50" xml:space="preserve">
<image display="none" overflow="visible" width="336" height="190" xlink:href="../../../../downloads/sns-twitter-side.png"  transform="matrix(1 0 0 1 0 -70)">
</image>
<g>
	<path fill="#FFFFFF" d="M29.2,26.2c-1.4-1.5-3.3-2.4-5.7-2.6c2.2-0.6,3.7-1.4,4.7-2.6c1-1.2,1.5-2.7,1.5-4.6c0-1.4-0.3-2.8-1-4.1
		c-0.7-1.2-1.7-2.2-2.9-2.8c-1.1-0.6-2.4-1-3.9-1.3c-1.5-0.3-4.2-0.4-8.1-0.4H4.5v34.2h9.7c3.9,0,6.7-0.1,8.4-0.4
		c1.7-0.3,3.1-0.7,4.3-1.3c1.4-0.7,2.5-1.8,3.3-3.2c0.8-1.4,1.2-3,1.2-4.8C31.3,29.8,30.6,27.7,29.2,26.2z M13.1,15.5h2
		c2.3,0,3.9,0.3,4.7,0.8c0.8,0.5,1.2,1.4,1.2,2.7c0,1.3-0.4,2.1-1.3,2.6c-0.8,0.5-2.4,0.8-4.7,0.8h-1.9
		C13.1,22.3,13.1,15.5,13.1,15.5z M21.1,35.1c-0.9,0.6-2.5,0.8-4.7,0.8h-3.3v-7.4h3.4c2.3,0,3.8,0.3,4.7,0.9c0.8,0.6,1.3,1.6,1.3,3
		C22.5,33.8,22,34.5,21.1,35.1L21.1,35.1z"/>
	<path fill="#FFFFFF" d="M41.2,33.4c-2.4,0-4.3,1.9-4.3,4.3c0,2.4,1.9,4.3,4.3,4.3c2.4,0,4.3-1.9,4.3-4.3c0,0,0,0,0,0
		C45.5,35.4,43.6,33.4,41.2,33.4z"/>
	<rect x="37.4" y="7.9" fill="#FFFFFF" width="7.5" height="22.8"/>
</g>
</svg>
