<?xml version="1.0" encoding="utf-8"?>
<!-- Generator: Adobe Illustrator 17.1.0, SVG Export Plug-In . SVG Version: 6.00 Build 0)  -->
<!DOCTYPE svg PUBLIC "-//W3C//DTD SVG 1.1//EN" "http://www.w3.org/Graphics/SVG/1.1/DTD/svg11.dtd">
<svg version="1.1" id="レイヤー_1" xmlns="http://www.w3.org/2000/svg" xmlns:xlink="http://www.w3.org/1999/xlink" x="0px"
	 y="0px" viewBox="0 0 50 50" enable-background="new 0 0 50 50" xml:space="preserve">
<image display="none" overflow="visible" width="336" height="190" xlink:href="../../../../downloads/sns-twitter-side.png"  transform="matrix(1 0 0 1 0 -70)">
</image>
<path fill="#FFFFFF" d="M44.8,9.5c-0.5-1.4-1.9-2.4-3.4-2.4h0H38H8.6C7.1,7.1,5.7,8,5.2,9.4C5,9.9,5,10.3,5,10.7v12.1l0.1,2.4
	c0.6,5.5,3.4,10.3,7.8,13.6c0.1,0.1,0.2,0.1,0.2,0.2l0.1,0c2.4,1.7,5,2.9,7.8,3.5c1.3,0.3,2.7,0.4,4,0.4c1.2,0,2.5-0.1,3.7-0.3
	c0.1,0,0.3-0.1,0.4-0.1c0,0,0.1,0,0.1,0c2.7-0.6,5.3-1.7,7.5-3.4l0.1,0c0.1-0.1,0.2-0.1,0.2-0.2c4.4-3.3,7.2-8.1,7.8-13.6l0.1-2.4
	V10.7C45,10.3,45,9.9,44.8,9.5z M36.4,22.1l-9.4,9c-0.5,0.5-1.2,0.8-1.9,0.8c-0.7,0-1.4-0.3-1.9-0.8l-9.4-9
	c-1.1-1.1-1.1-2.8-0.1-3.9c1.1-1.1,2.8-1.1,3.9-0.1l7.5,7.2l7.5-7.2c1.1-1.1,2.8-1,3.9,0.1C37.5,19.3,37.5,21,36.4,22.1z"/>
</svg>
