<?xml version="1.0" encoding="utf-8"?>
<!-- Generator: Adobe Illustrator 17.1.0, SVG Export Plug-In . SVG Version: 6.00 Build 0)  -->
<!DOCTYPE svg PUBLIC "-//W3C//DTD SVG 1.1//EN" "http://www.w3.org/Graphics/SVG/1.1/DTD/svg11.dtd">
<svg version="1.1" xmlns="http://www.w3.org/2000/svg" xmlns:xlink="http://www.w3.org/1999/xlink" x="0px" y="0px"
	 viewBox="0 0 1280 400" enable-background="new 0 0 1280 400" xml:space="preserve">
<g id="レイヤー_3">
</g>
<g id="レイヤー_4">
	<g>
		<g>
			<rect x="51" y="25" fill="#0C67D1" width="80" height="279"/>
			<polygon fill="#128AD1" points="331,224.4 131,25 51,25 51,104.8 250.6,304 331,304 			"/>
			<polygon fill="#0C67D1" points="250.6,25 51,224.4 51,304 131,304 331,104.8 331,25 			"/>
			<path fill="#128AD0" d="M51,224.4V304h80C86.9,304,51,268.5,51,224.4z"/>
			<path fill="#128AD1" d="M250.6,25c44.1,0,80.4,35.7,80.4,79.8V25H250.6z"/>
		</g>
		<g>
			<path fill="#0C67D1" d="M80.3,368.1h-6l-11-15.7l-2.9,3.3v12.4h-4.8v-46.7h4.8v29.7h0.1c0.8-1.1,1.9-2.5,2.7-3.6l9.5-11.3h5.8
				l-12,13.1L80.3,368.1z"/>
			<path fill="#0C67D1" d="M110.1,368.1h-4.8v-18.8c0-5.2-1.9-9.8-7.4-9.8c-4.1,0-8.3,3.5-8.3,9v19.5h-4.8v-23.6
				c0-3.3-0.1-5.7-0.2-8.2h4.3l0.3,5.2h0.1c1.6-3.1,5.3-5.9,10.2-5.9c4,0,10.7,2.4,10.7,13.2V368.1z"/>
			<path fill="#0C67D1" d="M144.1,368.1h-6l-11-15.7l-2.9,3.3v12.4h-4.8v-46.7h4.8v29.7h0.1c0.8-1.1,1.9-2.5,2.7-3.6l9.5-11.3h5.8
				l-12,13.1L144.1,368.1z"/>
			<path fill="#0C67D1" d="M145.7,348.5h15.9v3.7h-15.9V348.5z"/>
			<path fill="#0C67D1" d="M193.8,368.1H189v-18.8c0-5.2-1.9-9.8-7.4-9.8c-4.1,0-8.3,3.5-8.3,9v19.5h-4.8v-23.6
				c0-3.3-0.1-5.7-0.2-8.2h4.3l0.3,5.2h0.1c1.6-3.1,5.3-5.9,10.2-5.9c4,0,10.7,2.4,10.7,13.2V368.1z"/>
			<path fill="#128AD0" d="M201.9,365.1c0-2.2,1.5-3.8,3.5-3.8s3.4,1.6,3.4,3.8c0,2.1-1.3,3.7-3.5,3.7
				C203.1,368.8,201.9,367.1,201.9,365.1z"/>
			<path fill="#128AD0" d="M237.4,367c-1.4,0.7-4.6,1.8-8.6,1.8c-9.1,0-15.1-6.5-15.1-16.2c0-9.8,6.5-17,16.3-17
				c3.6,0,6.4,1.1,7.6,1.7l-1.2,3.9c-1.3-0.8-3.4-1.6-6.5-1.6c-7.4,0-11.2,5.9-11.2,12.7c0,7.7,4.6,12.6,11,12.6
				c3.2,0,5.3-0.9,6.9-1.6L237.4,367z"/>
			<path fill="#128AD0" d="M271.2,352c0,11.9-7.8,16.9-14.9,16.9c-8.2,0-14.5-6.1-14.5-16.4c0-10.9,6.8-16.9,14.9-16.9
				C265.4,335.5,271.2,342.2,271.2,352z M256.6,339.3c-6.9,0-9.8,6.8-9.8,12.9c0,7.1,3.9,12.8,9.6,12.8c5.8,0,9.8-5.7,9.8-12.9
				C266.3,346.5,263.5,339.3,256.6,339.3z"/>
			<path fill="#128AD0" d="M321.9,368.1h-4.8v-18.4c0-6.2-2.2-10.2-7-10.2c-3.9,0-7.5,3.7-7.5,8.5v20h-4.8v-19.6
				c0-5.1-2.2-8.9-6.7-8.9c-4.1,0-7.8,4.1-7.8,9v19.5h-4.8v-23.6c0-3.3-0.1-5.6-0.2-8.2h4.3l0.3,5.1h0.2c1.8-3.1,4.7-5.8,9.7-5.8
				c4.1,0,7.4,2.6,8.7,6.4h0.1c2.1-3.8,5.3-6.4,10.2-6.4c3.9,0,10.1,2.5,10.1,13.4V368.1z"/>
		</g>
		<g>
			<path fill="#0C67D1" d="M452.2,167.2c-0.1,1.3-1.9,2.4-3.4,2.6c-3.3,13.4-6.6,36.2-6.6,46.5c0,3.9,0,9,0.2,14.3
				c1.9-4.1,5.4-11.5,8.3-16.5l10.6,14.5c-3.3,4.1-8.9,13-11.8,19.4c-1.1,2.4-1.8,4.8-1.8,7.6c0,1.3,0.1,2.6,0.4,4.1l-18.7,2.9
				c-3.4-11.4-5.8-28.1-5.8-45.6c0-17.5,2.8-38.9,5.1-52.7L452.2,167.2z M464.2,191.5c5.3,0,19.9-0.3,27.4-0.8
				c-0.6-14.7-1.4-27.5-2.1-31.6l24.5,0.8c-0.1,1.4-1.5,3.3-3.9,3.8c0,5.4,0.3,15.5,0.6,25.9c5.9-0.6,14.5-1.8,19.9-3.4l1.5,18.7
				c-5.6,1-12.6,2-20.8,2.6l0.1,6.9c0,26-6.8,45.7-29.4,58.7c-2.6-3.1-11.5-10.5-15.4-13c21.4-11.1,25.5-25.8,25.5-43.8l-0.1-8
				c-7.3,0.5-18.4,0.8-27.6,0.8L464.2,191.5z"/>
			<path fill="#0C67D1" d="M544.7,263.4c6.9-20.9,22.9-67.6,26.8-78.4c2.6-7.4,6.9-20.7,7.9-25.2l25.2,5.9c-0.6,1.9-2.1,3.3-5.5,3.5
				c-4.4,9.1-13.9,33.7-18.4,45.7c6.6-5.6,14.4-7.8,20.8-7.8c10.4,0,16.5,7.4,16.5,18.7c0,2.6-0.5,16.2-0.5,16.3c0,5.9,1.8,8,5.6,8
				c8.6,0,14.3-10.3,19.7-29.9c5.5,3.9,11.9,7.9,17.8,10.8c-8,24.3-19.2,38.9-38.1,38.9c-16.2,0-25.4-8.3-25.4-21.7
				c0-2.3,0.5-13.5,0.5-16c0-4.6-0.9-6.6-3.3-6.6c-10.4,0-21.3,15.7-25.2,27.6c-1.6,5.1-3.4,10.6-5,16.3L544.7,263.4z"/>
			<path fill="#0C67D1" d="M702.6,167.2c-0.1,1.3-1.9,2.4-3.4,2.6c-3.3,13.4-6.6,36.2-6.6,46.5c0,3.9,0,9,0.2,14.3
				c1.9-4.1,5.4-11.5,8.3-16.5l10.6,14.5c-3.3,4.1-8.9,13-11.8,19.4c-1.1,2.4-1.8,4.8-1.8,7.6c0,1.3,0.1,2.6,0.4,4.1l-18.7,2.9
				c-3.4-11.4-5.8-28.1-5.8-45.6c0-17.5,2.8-38.9,5.1-52.7L702.6,167.2z M714.7,191.5c5.3,0,19.9-0.3,27.4-0.8
				c-0.6-14.7-1.4-27.5-2.1-31.6l24.5,0.8c-0.1,1.4-1.5,3.3-3.9,3.8c0,5.4,0.3,15.5,0.6,25.9c5.9-0.6,14.5-1.8,19.9-3.4l1.5,18.7
				c-5.6,1-12.6,2-20.8,2.6l0.1,6.9c0,26-6.8,45.7-29.4,58.7c-2.6-3.1-11.5-10.5-15.4-13c21.4-11.1,25.5-25.8,25.5-43.8l-0.1-8
				c-7.3,0.5-18.4,0.8-27.6,0.8L714.7,191.5z"/>
			<path fill="#0C67D1" d="M795.2,263.4c6.9-20.9,22.9-67.6,26.8-78.4c2.6-7.4,6.9-20.7,7.9-25.2l25.2,5.9c-0.6,1.9-2.1,3.3-5.5,3.5
				c-4.4,9.1-13.9,33.7-18.4,45.7c6.6-5.6,14.4-7.8,20.8-7.8c10.4,0,16.5,7.4,16.5,18.7c0,2.6-0.5,16.2-0.5,16.3c0,5.9,1.8,8,5.6,8
				c8.6,0,14.3-10.3,19.7-29.9c5.5,3.9,11.9,7.9,17.8,10.8c-8,24.3-19.2,38.9-38.1,38.9c-16.2,0-25.4-8.3-25.4-21.7
				c0-2.3,0.5-13.5,0.5-16c0-4.6-0.9-6.6-3.3-6.6c-10.4,0-21.3,15.7-25.2,27.6c-1.6,5.1-3.4,10.6-5,16.3L795.2,263.4z"/>
			<path fill="#128AD0" d="M953.5,250.5c0-7.9,5.6-13.7,12.8-13.7c7.4,0,12.8,5.4,12.8,13.7c0,8.1-5.1,13.7-12.8,13.7
				S953.5,258.4,953.5,250.5z"/>
			<path fill="#128AD0" d="M1038.1,261.4c-3,1.4-9.3,2.6-16.2,2.6c-21,0-34.4-13.1-34.4-35.7c0-21.3,13.8-37.3,37.4-37.3
				c5.5,0,10.8,1.1,13.9,2.3l-3.1,16.7c-2.3-0.8-5.3-1.6-9.6-1.6c-10,0-16.4,7.8-16.3,19.2c0,12.3,7,19.2,16.4,19.2
				c3.9,0,7.1-0.6,9.9-1.8L1038.1,261.4z"/>
			<path fill="#128AD0" d="M1111.1,227.1c0,27.4-17.7,37.1-33.1,37.1c-19.5,0-32.9-13.5-32.9-36.2c0-23.7,14.3-37.1,33.7-37.1
				C1099,190.9,1111.1,205.9,1111.1,227.1z M1078.3,206.9c-8.3,0-10.9,10.8-10.9,20.5c0,11.8,3.4,20.7,10.9,20.7
				c7.1,0,10.5-9.4,10.5-20.7C1088.8,217.1,1085.8,206.9,1078.3,206.9z"/>
			<path fill="#128AD0" d="M1221.9,262.8h-21.7v-39.3c0-8.9-2-14.7-8-14.7c-5.1,0-8.8,4.4-8.8,11.5v42.5h-21.7v-41.1
				c0-6.9-1.8-12.9-7.9-12.9c-3.3,0-8.9,2.6-8.9,11.6v42.3h-21.7v-48c0-8.4-0.2-15.9-0.5-22.5h18.8l1,8.8h0.4
				c3.3-4.4,9.4-10.1,19.4-10.1c8.6,0,14.9,4.1,17.7,10.8h0.3c2.8-4,9.1-10.8,20-10.8c13.8,0,21.5,10.3,21.5,29.1V262.8z"/>
		</g>
		<g>
			<path fill="#0C67D1" d="M567.6,78.3c-0.1,0.6-0.8,1-1.6,1.1c-1.7,7.2-3.2,17.8-3.2,23.9c0,3.4,0.1,6.5,0.5,8.9
				c1.1-2.5,3.6-7.4,5.3-10.5l3.6,4.3c-1.7,2.8-5.1,8.4-6.3,11.5c-0.4,1-0.6,1.7-0.6,2.7c0,0.7,0.1,1.5,0.4,2.4l-5.9,1.1
				c-1.6-4.8-2.8-11.8-2.8-20.3c0-7.9,1.3-18.2,2.8-26.3L567.6,78.3z M575.4,91.3c4,0,11-0.1,15.1-0.4c-0.4-7-0.8-14.5-1-16l8.1,0.2
				c-0.1,0.7-0.7,1.3-1.7,1.6c0.1,3,0.3,8.8,0.5,13.9c3.7-0.4,8-0.9,11-1.8l0.5,5.9c-3.1,0.6-7,1.2-11.3,1.5l0.1,4.1
				c0,12.8-3,22.2-14.3,28.1c-0.8-1-3.4-3.2-4.7-4.1c10.7-5.3,13-12.8,13-23c0-0.8,0-4-0.1-4.9c-3.8,0.3-10.1,0.4-15.2,0.4
				L575.4,91.3z"/>
			<path fill="#0C67D1" d="M614.5,124.8c4.1-11.8,11.6-33.4,13.7-39.4c1.3-3.4,2.9-8.6,3.4-10.3l8.5,2c-0.3,0.8-1.1,1.3-2.5,1.3
				c-2.9,6.9-7.8,20.1-10,26h0.1c3.4-3.7,8.2-6.1,12-6.1c5,0,7.7,3.4,7.7,8.9c0,1-0.2,6.7-0.2,7.7c0,3.8,1.9,5.8,5,5.8
				c5,0,9.1-5.7,11.8-15.8c1.7,1.2,3.7,2.4,5.6,3.3c-3.5,11.5-9.2,18.7-17.6,18.7c-6.8,0-11-3.8-11-10c0-2.3,0.1-4.8,0.2-6.9v-0.8
				c0-3.4-1.1-5.1-3.3-5.1c-6.2,0-12.5,9.1-14.2,13.7c-0.8,2.2-2,5.6-3,8.8L614.5,124.8z"/>
			<path fill="#0C67D1" d="M687.6,78.3c-0.1,0.6-0.8,1-1.6,1.1c-1.7,7.2-3.2,17.8-3.2,23.9c0,3.4,0.1,6.5,0.5,8.9
				c1.1-2.5,3.6-7.4,5.3-10.5l3.6,4.3c-1.7,2.8-5.1,8.4-6.3,11.5c-0.4,1-0.6,1.7-0.6,2.7c0,0.7,0.1,1.5,0.4,2.4l-5.9,1.1
				c-1.6-4.8-2.8-11.8-2.8-20.3c0-7.9,1.3-18.2,2.8-26.3L687.6,78.3z M695.4,91.3c4,0,11-0.1,15.1-0.4c-0.4-7-0.8-14.5-1-16l8.1,0.2
				c-0.1,0.7-0.7,1.3-1.7,1.6c0.1,3,0.3,8.8,0.5,13.9c3.7-0.4,8-0.9,11-1.8l0.5,5.9c-3.1,0.6-7,1.2-11.3,1.5l0.1,4.1
				c0,12.8-3,22.2-14.3,28.1c-0.8-1-3.4-3.2-4.7-4.1c10.7-5.3,13-12.8,13-23c0-0.8,0-4-0.1-4.9c-3.8,0.3-10.1,0.4-15.2,0.4
				L695.4,91.3z"/>
			<path fill="#0C67D1" d="M734.5,124.8c4.1-11.8,11.6-33.4,13.7-39.4c1.3-3.4,2.9-8.6,3.4-10.3l8.5,2c-0.3,0.8-1.1,1.3-2.5,1.3
				c-2.9,6.9-7.8,20.1-10,26h0.1c3.4-3.7,8.2-6.1,12-6.1c5,0,7.7,3.4,7.7,8.9c0,1-0.2,6.7-0.2,7.7c0,3.8,1.9,5.8,5,5.8
				c5,0,9.1-5.7,11.8-15.8c1.7,1.2,3.7,2.4,5.6,3.3c-3.5,11.5-9.2,18.7-17.6,18.7c-6.8,0-11-3.8-11-10c0-2.3,0.1-4.8,0.2-6.9v-0.8
				c0-3.4-1.1-5.1-3.3-5.1c-6.2,0-12.5,9.1-14.2,13.7c-0.8,2.2-2,5.6-3,8.8L734.5,124.8z"/>
			<path fill="#128AD0" d="M841.2,95.9c-0.2,0.1-0.4,0.1-0.5,0.1c-0.5,0-1-0.1-1.4-0.4c-17.9,5-32.7,12.1-32.6,19.4
				c0.1,5.1,5.6,7,14.7,7c9.1,0,16.9-0.8,21.1-1.5l0.5,6.1c-4.3,0.6-12.1,1.1-21.8,1.1c-11.6,0-20.5-2.8-20.6-12.3
				c-0.1-6.4,6-11.9,15.2-16.7c-2.2-4-2.9-10.9-2.8-24.1l8.7,0.7c-0.1,0.8-0.7,1.3-1.9,1.4c-0.1,9.5,0.1,15.7,1.6,19.1
				c5.3-2.4,11.5-4.7,17.8-6.8L841.2,95.9z M833.5,75.4c2.9,2.5,5.6,5.9,7.3,8.7l-3.2,2.3c-1.5-2.7-4.3-6.2-7.1-8.7L833.5,75.4z
				 M841.9,72.2c2.9,2.6,5.7,5.8,7.2,8.6l-3.1,2.3c-1.6-2.8-4.4-6.2-7-8.6L841.9,72.2z"/>
			<path fill="#128AD0" d="M859.9,96.7c1.3-0.2,3.3-0.8,5.7-1.4c8.2-2.5,16.5-4.1,21.5-4.1c8.2,0,15.7,4.3,15.7,14.3
				c0,13.4-12.7,18.3-29.5,19.6c-0.3-1.3-1.1-4.1-1.7-5.2c14.3-1,25.3-4.8,25.3-14c0-6.7-4.7-9.6-10.5-9.6c-4.2,0-11.1,1.4-19.5,4.3
				c-1.3,0.5-2.8,1-3.8,1.4c-0.2,0.5-0.7,1-1.2,1.1L859.9,96.7z"/>
			<path fill="#128AD0" d="M961.2,95.9c-0.2,0.1-0.4,0.1-0.5,0.1c-0.5,0-1-0.1-1.4-0.4c-17.9,5-32.7,12.1-32.6,19.4
				c0.1,5.1,5.6,7,14.7,7c9.1,0,16.9-0.8,21.1-1.5l0.5,6.1c-4.3,0.6-12.1,1.1-21.8,1.1c-11.6,0-20.5-2.8-20.6-12.3
				c-0.1-6.4,6-11.9,15.2-16.7c-2.2-4-2.9-10.9-2.8-24.1l8.7,0.7c-0.1,0.8-0.7,1.3-1.9,1.4c-0.1,9.5,0.1,15.7,1.6,19.1
				c5.3-2.4,11.5-4.7,17.8-6.8L961.2,95.9z"/>
			<path fill="#128AD0" d="M1021.9,123.5c-5,0.8-12.1,1.3-18.2,1.3c-5.1,0-9.6-0.2-12.1-0.8c-7.5-1.7-10.7-6.5-10.7-11.9
				c0-4.6,2.5-9.2,5.8-12.7l5.1,2.4c-3.1,3-4.9,6.5-4.9,9.4c0,3.2,2.1,6.2,6.8,7.2c2.1,0.4,5.4,0.7,9.2,0.7c5.9,0,13-0.5,18.5-1.7
				L1021.9,123.5z M993.7,92.8c2.5-2,6.3-4.6,9.1-6.1v-0.1c-3.7,0.5-13.2,0.7-19,0.7c0-1.5,0-4.4-0.1-5.8c5.7,0.1,18.1-0.1,23.5-0.5
				c3.5-0.2,7.6-0.7,11-1.4l0.5,6.2c-7.7,1-16.4,7-19.9,9.8L993.7,92.8z"/>
			<path fill="#128AD0" d="M1058.7,75.8c-0.1,0.7-0.7,1-1.7,1.3c-0.1,2-0.2,4.2-0.4,6.4c4.5-0.5,8.7-1.3,12.2-2.3l0.8,5.6
				c-3.3,1-8.1,1.7-13.4,2.1c-0.4,4.7-0.8,8.9-1.1,11.8c0.1,0.7,0.2,1.4,0.2,2.2c0,3.2-1,7.2-2.6,9.4c-1.1,2-1.6,3.7-1.6,4.9
				c0,4.1,4.4,4.6,9.8,4.6c4.1,0,8.3-0.2,12.2-1.4c2.5-0.7,4.1-2.6,4.1-5.5s-1.5-6.6-5-11.1c1.5-0.5,3.5-1.3,5.1-2.2
				c4.1,5.3,6.2,10.3,6.2,14.3c0,4.7-2.7,8.2-8,9.6c-4.2,1.2-10.7,1.5-13.9,1.5c-5,0-16.3,0-16.3-7.7c0-1.3,0.4-2.6,1-4.1
				c-0.8,0.2-1.6,0.4-2.4,0.4c-3.9,0-7.5-2.9-7.5-9.1c0-7.7,5.1-11.5,9.7-11.5c1.3,0,2.6,0.5,3.5,1.3c0.1-2,0.4-4.6,0.5-7.1h-3.3
				c-2.5,0-5.7,0.1-8.7,0.1v-5.3c2.5,0,5.9,0.1,8.8,0.1c1.2,0,2.4-0.1,3.5-0.1c0.2-3.2,0.3-6.2,0.3-8.8L1058.7,75.8z M1049.8,103.9
				c0-2.5-1.1-4.5-3.3-4.5c-3.3,0-5.5,2.6-5.5,6.7c0,2.9,1.4,4.8,3.8,4.8C1049.4,110.9,1049.8,104.9,1049.8,103.9z M1087.6,96.8
				c-4.4-2.2-10.9-3.8-16.3-4.5l1.2-5.2c5.9,0.5,12.5,2,16.8,4.1L1087.6,96.8z"/>
		</g>
	</g>
</g>
</svg>
