<?xml version="1.0" encoding="utf-8"?>
<!-- Generator: Adobe Illustrator 17.1.0, SVG Export Plug-In . SVG Version: 6.00 Build 0)  -->
<!DOCTYPE svg PUBLIC "-//W3C//DTD SVG 1.1//EN" "http://www.w3.org/Graphics/SVG/1.1/DTD/svg11.dtd">
<svg version="1.1" id="レイヤー_1" xmlns="http://www.w3.org/2000/svg" xmlns:xlink="http://www.w3.org/1999/xlink" x="0px"
	 y="0px" viewBox="0 0 336 190" enable-background="new 0 0 336 190" xml:space="preserve">
<rect fill="#1DA1F2" width="336" height="190"/>
<image display="none" overflow="visible" width="336" height="190" xlink:href="../../../../downloads/sns-twitter-side.png" >
</image>
<path fill="#FFFFFF" d="M157.9,99.3c20.6,0,31.8-17,31.8-31.8c0-0.5,0-1,0-1.4c2.2-1.6,4.1-3.5,5.6-5.8c-2,0.9-4.2,1.5-6.4,1.8
	c2.3-1.4,4.1-3.6,4.9-6.2c-2.2,1.3-4.6,2.2-7.1,2.7c-4.2-4.5-11.3-4.7-15.8-0.5c-2.9,2.7-4.1,6.8-3.2,10.7c-9-0.5-17.4-4.7-23-11.7
	c-3,5.1-1.5,11.6,3.5,14.9c-1.8-0.1-3.5-0.5-5.1-1.4c0,0,0,0.1,0,0.1c0,5.3,3.8,9.9,9,11c-1.6,0.4-3.4,0.5-5,0.2
	c1.5,4.6,5.7,7.7,10.4,7.8c-4,3.1-8.8,4.8-13.9,4.8c-0.9,0-1.8-0.1-2.7-0.2C145.9,97.6,151.8,99.3,157.9,99.3"/>
<text transform="matrix(1 0 0 1 32.0504 161.9998)"><tspan x="0" y="0" fill="#FFFFFF" font-family="'KozGoPr6N-Medium-83pv-RKSJ-H'" font-size="25">@knk_</tspan><tspan x="75.6" y="0" fill="#FFFFFF" font-family="'KozGoPr6N-Medium-83pv-RKSJ-H'" font-size="25" letter-spacing="6">n</tspan><tspan x="96.9" y="0" fill="#FFFFFF" font-family="'KozGoPr6N-Medium-83pv-RKSJ-H'" font-size="25">をフォローする</tspan></text>
</svg>
