<?xml version="1.0" encoding="utf-8"?>
<!-- Generator: Adobe Illustrator 17.1.0, SVG Export Plug-In . SVG Version: 6.00 Build 0)  -->
<!DOCTYPE svg PUBLIC "-//W3C//DTD SVG 1.1//EN" "http://www.w3.org/Graphics/SVG/1.1/DTD/svg11.dtd">
<svg version="1.1" id="レイヤー_1" xmlns="http://www.w3.org/2000/svg" xmlns:xlink="http://www.w3.org/1999/xlink" x="0px"
	 y="0px" viewBox="0 0 50 50" enable-background="new 0 0 50 50" xml:space="preserve">
<image display="none" overflow="visible" width="336" height="190" xlink:href="../../../../downloads/sns-twitter-side.png"  transform="matrix(1 0 0 1 0 -70)">
</image>
<path fill="#FFFFFF" d="M16.9,42.6c16.4,0,25.3-13.6,25.3-25.3c0-0.4,0-0.8,0-1.2c1.7-1.3,3.2-2.8,4.4-4.6c-1.6,0.7-3.3,1.2-5.1,1.4
	c1.9-1.1,3.3-2.9,3.9-4.9c-1.7,1-3.7,1.8-5.7,2.2c-3.4-3.6-9-3.8-12.6-0.4c-2.3,2.2-3.3,5.4-2.6,8.5C17.5,17.9,10.8,14.6,6.3,9
	C4,13.1,5.2,18.3,9.1,20.9c-1.4,0-2.8-0.4-4-1.1c0,0,0,0.1,0,0.1c0,4.2,3,7.9,7.1,8.7c-1.3,0.4-2.7,0.4-4,0.2
	c1.2,3.6,4.5,6.1,8.3,6.2c-3.2,2.5-7,3.8-11.1,3.8c-0.7,0-1.4,0-2.1-0.1C7.4,41.2,12.1,42.6,16.9,42.6"/>
</svg>
